<svg id="Layer_2" data-name="Layer 2" xmlns="http://www.w3.org/2000/svg" xmlns:xlink="http://www.w3.org/1999/xlink" viewBox="0 0 512 512"><defs><clipPath id="clip-path"><path d="M369.85,157.8a127.84,127.84,0,0,0-26.42-39.37,124.24,124.24,0,0,0-39.28-26.92,119.71,119.71,0,0,0-48.15-10,121.06,121.06,0,0,0-48.15,10,126.15,126.15,0,0,0-65.7,66.29,119.93,119.93,0,0,0-9.77,47.36c0,35.39,17.55,61.61,39.68,94.7,18.84,28.12,42.27,63.21,62.21,115.05,2.09,5.88,9.07,15.65,21.83,15.65a23.37,23.37,0,0,0,21.73-14.66v-.1c19.94-52.53,43.47-87.82,62.41-116.14,22-33.09,39.48-59.21,39.48-94.6A121.34,121.34,0,0,0,369.85,157.8Z" style="fill:none"/></clipPath></defs><rect id="Background" width="512" height="512" style="fill:#fff"/><g style="clip-path:url(#clip-path)"><g id="Icon"><path d="M370.2,157.5A128.18,128.18,0,0,0,343.7,118a124.71,124.71,0,0,0-39.4-27A120.11,120.11,0,0,0,256,81a121.47,121.47,0,0,0-48.3,10,126.49,126.49,0,0,0-65.9,66.5A120.25,120.25,0,0,0,132,205c0,35.5,17.6,61.8,39.8,95,18.9,28.2,42.4,63.4,62.4,115.4,2.1,5.9,9.1,15.7,21.9,15.7a23.46,23.46,0,0,0,21.8-14.7v-.1c20-52.7,43.6-88.1,62.6-116.5,22.1-33.2,39.6-59.4,39.6-94.9A121.65,121.65,0,0,0,370.2,157.5Z" style="fill:#ed5564"/><path d="M132,205c0,35.5,17.6,61.7,39.8,94.9,18.9,28.2,42.4,63.4,62.4,115.4,2.1,5.9,9.1,15.7,21.9,15.7a23.46,23.46,0,0,0,21.8-14.7v-.1c20-52.7,43.6-88.1,62.6-116.5,22.1-33.2,39.6-59.4,39.6-94.8L132,205Z" style="fill:#e6e9ed"/><path d="M132,204.9c0,2.5.1,4.9.3,7.3H379.8c.2-2.4.3-4.8.3-7.3s-.1-4.9-.2-7.3H132.2C132.1,200.1,132,202.5,132,204.9Z" style="fill:#434a54"/><path d="M299.8,204.9A43.8,43.8,0,1,1,256,161.1,43.79,43.79,0,0,1,299.8,204.9Z" style="fill:#a0d468"/><path d="M256,161.2a43.41,43.41,0,0,0-10.9,1.4,43.8,43.8,0,0,1,0,84.8A43.79,43.79,0,1,0,256,161.2Z" style="fill:#fff;opacity:0.20000000298023224;isolation:isolate"/><path d="M256,256a51.1,51.1,0,1,1,51.1-51.1A51.13,51.13,0,0,1,256,256Zm0-87.5A36.5,36.5,0,1,0,292.5,205,36.58,36.58,0,0,0,256,168.5Z" style="fill:#434a54"/><path d="M256,336.2a7.34,7.34,0,0,0-7.3,7.3v86.3a23.75,23.75,0,0,0,14.6.1V343.5A7.34,7.34,0,0,0,256,336.2Z" style="fill:#ccd1d9"/><path d="M370.2,157.5A128.18,128.18,0,0,0,343.7,118a124.71,124.71,0,0,0-39.4-27A120.11,120.11,0,0,0,256,81c-2.4,0-4.9.1-7.3.2a119.45,119.45,0,0,1,41,9.8,126.49,126.49,0,0,1,65.9,66.5,120.25,120.25,0,0,1,9.8,47.5c0,35.4-17.5,61.6-39.6,94.9-19,28.5-42.5,63.9-62.6,116.5v.1A24.08,24.08,0,0,1,248.8,430a23.1,23.1,0,0,0,7.2,1.2,23.46,23.46,0,0,0,21.8-14.7v-.1c20-52.7,43.6-88.1,62.6-116.5C362.5,266.7,380,240.5,380,205A119.89,119.89,0,0,0,370.2,157.5Z" style="fill:#fff;opacity:0.20000000298023224;isolation:isolate"/><path d="M370.2,157.5A128.18,128.18,0,0,0,343.7,118a124.71,124.71,0,0,0-39.4-27A120.11,120.11,0,0,0,256,81a121.47,121.47,0,0,0-48.3,10,126.49,126.49,0,0,0-65.9,66.5A120.25,120.25,0,0,0,132,205c0,35.5,17.6,61.8,39.8,95,18.9,28.2,42.4,63.4,62.4,115.4,2.1,5.9,9.1,15.7,21.9,15.7a23.46,23.46,0,0,0,21.8-14.7v-.1c20-52.7,43.6-88.1,62.6-116.5,22.1-33.2,39.6-59.4,39.6-94.9A121.65,121.65,0,0,0,370.2,157.5Z" style="fill:#ed5564"/><path d="M132,205c0,35.5,17.6,61.7,39.8,94.9,18.9,28.2,42.4,63.4,62.4,115.4,2.1,5.9,9.1,15.7,21.9,15.7a23.46,23.46,0,0,0,21.8-14.7v-.1c20-52.7,43.6-88.1,62.6-116.5,22.1-33.2,39.6-59.4,39.6-94.8L132,205Z" style="fill:#e6e9ed"/><path d="M132,204.9c0,2.5.1,4.9.3,7.3H379.8c.2-2.4.3-4.8.3-7.3s-.1-4.9-.2-7.3H132.2C132.1,200.1,132,202.5,132,204.9Z" style="fill:#434a54"/><path d="M299.8,204.9A43.8,43.8,0,1,1,256,161.1,43.79,43.79,0,0,1,299.8,204.9Z" style="fill:#a0d468"/><path d="M256,161.2a43.41,43.41,0,0,0-10.9,1.4,43.8,43.8,0,0,1,0,84.8A43.79,43.79,0,1,0,256,161.2Z" style="fill:#fff;opacity:0.20000000298023224;isolation:isolate"/><path d="M256,256a51.1,51.1,0,1,1,51.1-51.1A51.13,51.13,0,0,1,256,256Zm0-87.5A36.5,36.5,0,1,0,292.5,205,36.58,36.58,0,0,0,256,168.5Z" style="fill:#434a54"/><path d="M256,336.2a7.34,7.34,0,0,0-7.3,7.3v86.3a23.75,23.75,0,0,0,14.6.1V343.5A7.34,7.34,0,0,0,256,336.2Z" style="fill:#ccd1d9"/><path d="M370.2,157.5A128.18,128.18,0,0,0,343.7,118a124.71,124.71,0,0,0-39.4-27A120.11,120.11,0,0,0,256,81c-2.4,0-4.9.1-7.3.2a119.45,119.45,0,0,1,41,9.8,126.49,126.49,0,0,1,65.9,66.5,120.25,120.25,0,0,1,9.8,47.5c0,35.4-17.5,61.6-39.6,94.9-19,28.5-42.5,63.9-62.6,116.5v.1A24.08,24.08,0,0,1,248.8,430a23.1,23.1,0,0,0,7.2,1.2,23.46,23.46,0,0,0,21.8-14.7v-.1c20-52.7,43.6-88.1,62.6-116.5C362.5,266.7,380,240.5,380,205A119.89,119.89,0,0,0,370.2,157.5Z" style="fill:#fff;opacity:0.20000000298023224;isolation:isolate"/></g></g></svg>