<?xml version="1.0" encoding="UTF-8" standalone="no"?>
<!-- Created with Inkscape (http://www.inkscape.org/) -->

<svg
   width="512"
   height="512"
   viewBox="0 0 135.46666 135.46666"
   version="1.1"
   id="svg5"
   xmlns="http://www.w3.org/2000/svg"
   xmlns:svg="http://www.w3.org/2000/svg">
  <defs
     id="defs2">
    <clipPath
       clipPathUnits="userSpaceOnUse"
       id="clipPath5420">
      <g
         id="g5452"
         transform="matrix(1,0,0,-1,0.13726765,0.53523904)">
        <path
           style="fill:#ffffff;stroke:none;stroke-width:0.294017px;stroke-linecap:butt;stroke-linejoin:miter;stroke-opacity:1"
           d="m 17.573429,34.021278 c 1.195434,-0.311852 4.98964,-0.519754 6.70483,-0.259878 1.715188,0.259878 2.858647,0.363829 4.937662,0.311852 2.079016,-0.05197 3.638279,-0.259876 6.133097,-0.207899 2.494824,0.05197 2.598773,-0.415806 3.53433,0.675678 0.935558,1.091484 1.663212,2.130993 2.234944,3.846182 0.571729,1.715188 0.831604,3.3784 -0.571732,4.729762 -1.403336,1.351359 -4.469884,4.261984 -7.276555,4.52186 -2.806675,0.259877 -4.313961,-0.77963 -6.548904,-1.923091 -2.234944,-1.143459 -2.546796,-1.767164 -5.041615,-2.390869 -2.494819,-0.623705 -4.210008,-1.819139 -4.365933,-2.910622 -0.155927,-1.091483 0.259876,-6.392975 0.259876,-6.392975 z"
           id="path5422" />
        <path
           style="fill:#ffffff;stroke:none;stroke-width:0.294017px;stroke-linecap:butt;stroke-linejoin:miter;stroke-opacity:1"
           d="m 41.968723,35.164736 c 0.363829,-1.299383 0.311852,-1.195434 1.091484,-1.195434 0.779631,0 18.347318,-0.05197 18.867074,0.415803 0.519754,0.467778 2.28692,0.883583 2.390869,2.962598 0.103946,2.079017 -0.103946,8.627921 -0.207902,10.499034 -0.103946,1.871115 -4.002106,8.783845 -6.704827,9.355573 -2.702722,0.571732 -4.158034,-0.207902 -5.041615,-1.611238 -0.883581,-1.403336 -2.079017,-4.52186 -3.118525,-6.081122 -1.03951,-1.559262 -2.234942,-1.975064 -3.742228,-5.145565 -1.50729,-3.170501 -1.299387,-6.652853 -2.182971,-7.640387 -0.88358,-0.987531 -1.351359,-1.559262 -1.351359,-1.559262 z"
           id="path5424" />
        <path
           style="fill:#ffffff;stroke:none;stroke-width:0.294017px;stroke-linecap:butt;stroke-linejoin:miter;stroke-opacity:1"
           d="m 17.469478,44.520311 c 0.67568,-0.05197 0.311853,-0.831607 2.079017,0.467779 1.767164,1.299386 4.62581,2.182967 6.392975,2.962598 1.767165,0.779631 4.885689,2.338893 6.133098,2.806671 1.24741,0.467779 4.261984,-0.88358 4.78174,-0.831607 0.519752,0.05197 0.831607,0 1.611238,2.130993 0.779631,2.130991 1.247409,12.682 0.05197,13.513607 -1.195433,0.831608 -1.767164,1.819138 -3.898155,2.234944 -2.130991,0.415802 -4.31396,0.467779 -5.56137,-0.207902 -1.24741,-0.675682 -4.62581,-3.846179 -5.353467,-4.677788 -0.727655,-0.831606 -2.70272,-2.598771 -3.846179,-4.521859 -1.14346,-1.923091 -2.962599,-3.274453 -2.650747,-6.548904 0.311853,-3.27445 0.259877,-7.328532 0.259877,-7.328532 z"
           id="path5426" />
        <path
           style="fill:#ffffff;stroke:none;stroke-width:0.294017px;stroke-linecap:butt;stroke-linejoin:miter;stroke-opacity:1"
           d="m 18.362473,59.810494 c 0.831607,0.727656 -0.155926,-0.675681 1.871115,1.975066 2.027041,2.650747 3.222475,4.573835 4.833713,5.873221 1.611238,1.299387 3.846182,2.910625 4.885689,3.638279 1.039507,0.727656 3.326426,2.234944 4.158034,4.833713 0.831605,2.598773 2.079014,5.925196 2.079014,6.70483 0,0.779632 0.155927,1.923088 -0.831604,2.130991 -0.987533,0.207902 -1.819142,0.103946 -5.353468,0.311852 -3.534329,0.207902 -6.029149,0.363829 -7.744337,1.299387 -1.715189,0.935557 -3.170501,0.831603 -3.794204,-0.571732 -0.623705,-1.403336 -1.299386,-8.36804 -0.831607,-10.862862 0.467778,-2.494818 -0.831607,-13.045828 0.727655,-15.332745 z"
           id="path5428" />
        <path
           style="fill:#ffffff;stroke:none;stroke-width:0.294017px;stroke-linecap:butt;stroke-linejoin:miter;stroke-opacity:1"
           d="m 18.579788,88.543484 c 0,0 0.987533,0.883581 3.014574,0.779632 2.027041,-0.103946 2.027041,-0.571729 4.210009,-0.883581 2.182967,-0.311853 5.405441,-0.831608 7.432484,-0.883584 2.027041,-0.05197 1.507286,0.727657 3.638277,0.207903 2.130993,-0.519756 3.06655,-1.559263 3.846181,-1.195436 0.779632,0.363829 3.066548,0.467778 3.482353,2.130993 0.415802,1.663212 0.987534,3.898155 0.883581,6.392974 -0.103946,2.49482 1.039511,5.353465 0.05197,6.185075 -0.987533,0.83161 -2.754698,0.62371 -6.185075,0.72765 -3.430376,0.10396 -5.197541,-0.51975 -7.79631,-0.31185 -2.598773,0.20791 -7.120632,0.36383 -8.368042,0.36383 -1.24741,0 -3.430377,1.14346 -4.158034,-0.15592 -0.727655,-1.29939 -1.143458,-15.488679 -0.05197,-13.357686 z"
           id="path5430" />
        <path
           style="fill:#ffffff;stroke:none;stroke-width:0.294017px;stroke-linecap:butt;stroke-linejoin:miter;stroke-opacity:1"
           d="m 34.517415,69.936287 c 3.638279,-0.935558 4.210008,-0.415803 5.301491,-2.546797 1.091483,-2.130989 1.923091,-3.118523 2.079017,-4.210007 0.155926,-1.091483 -0.779631,-2.754695 1.559262,-2.13099 2.338893,0.623705 3.482352,-0.207903 5.093589,1.299383 1.611237,1.507288 3.482352,3.274453 3.274452,5.613346 -0.207902,2.338893 -1.871113,8.471992 -3.742232,10.551009 -1.871114,2.079014 -3.27445,3.742229 -3.898155,4.989639 -0.623705,1.247409 -0.155926,1.663211 -2.338893,1.507286 -2.182967,-0.155927 -3.118523,-0.05197 -3.586303,-1.715188 -0.467778,-1.663213 -0.571728,-2.754696 -0.831607,-4.625811 -0.259876,-1.871114 -0.363828,-4.106058 -1.24741,-5.197542 -0.883581,-1.091483 -4.002105,-1.975066 -1.663211,-3.534328 z"
           id="path5432" />
        <path
           style="fill:#ffffff;stroke:none;stroke-width:0.294017px;stroke-linecap:butt;stroke-linejoin:miter;stroke-opacity:1"
           d="m 39.09125,47.369545 c 0.779632,-0.935558 1.039508,-2.754696 2.754696,-2.442844 1.715188,0.311853 2.390869,1.299386 3.170501,2.702722 0.779631,1.403337 2.13099,5.405441 3.066547,6.652851 0.935558,1.24741 1.195437,1.663215 2.39087,2.858649 1.195437,1.195435 1.559262,2.079017 0.831608,2.806671 -0.727656,0.727657 -1.403337,0.05197 -2.806672,-0.103946 -1.403336,-0.155927 -3.378403,-0.519756 -4.625813,-0.935558 -1.24741,-0.415802 -2.079017,1.195434 -2.546795,-1.351359 -0.46778,-2.546796 -0.883581,-6.029149 -1.351361,-7.484461 -0.467778,-1.455312 -0.883581,-2.702722 -0.883581,-2.702722 z"
           id="path5434" />
        <path
           style="fill:#ffffff;stroke:none;stroke-width:0.294017px;stroke-linecap:butt;stroke-linejoin:miter;stroke-opacity:1"
           d="m 45.3991,86.308542 c 2.806671,-4.261984 2.598771,-5.093592 4.885689,-6.91273 2.286919,-1.819138 3.1705,-3.27445 4.31396,-5.301492 1.143457,-2.02704 -0.311852,-3.794205 2.806672,-1.455312 3.118524,2.338893 4.625809,2.39087 5.925195,4.365934 1.299387,1.975067 1.767166,2.442847 1.767166,4.625813 0,2.182967 -0.363829,3.222474 -0.05197,6.133099 0.311852,2.910621 0.311852,3.482353 1.871115,6.392975 1.559262,2.910624 1.767165,3.222476 1.663215,4.31396 -0.103957,1.091483 0.77963,1.195433 -0.623705,1.871111 -1.403336,0.67568 -3.482353,1.87112 -5.769273,1.40334 -2.286916,-0.46778 -1.455309,-0.88358 -4.677785,-0.93556 -3.222475,-0.052 -4.417911,-0.15592 -5.925197,0 -1.507289,0.15593 -3.586303,1.14346 -3.898156,0.15593 -0.311851,-0.987536 -0.77963,-0.4158 -0.727657,-2.9626 0.05197,-2.546796 -0.05197,-2.702722 0.05197,-3.950132 0.103946,-1.24741 0.623703,-1.299386 -0.05197,-3.27445 C 46.282688,88.80336 45.34713,87.348049 45.34713,87.348049 Z"
           id="path5436" />
        <path
           style="fill:#ffffff;stroke:none;stroke-width:0.294017px;stroke-linecap:butt;stroke-linejoin:miter;stroke-opacity:1"
           d="m 54.64131,59.437254 c 0,0 1.559262,0.571729 3.378403,-0.311852 1.819139,-0.883581 1.923089,-1.143461 3.586303,-2.598773 1.663213,-1.455309 2.650746,-3.690252 4.210008,-4.52186 1.559262,-0.831604 3.378403,-1.611239 5.249518,-0.311853 1.871114,1.299387 2.598769,0.571732 3.48235,2.49482 0.883584,1.923091 -0.259876,3.586306 1.403339,7.95224 1.663211,4.365933 1.507286,0.98753 1.507286,6.756804 0,5.769269 0.207902,5.509393 -0.311853,7.588411 -0.519755,2.079013 2.702722,4.054081 -2.182967,3.430376 -4.885689,-0.623705 -3.950132,-0.207902 -5.66532,-0.987534 -1.715188,-0.779631 -1.819141,-0.831607 -3.690255,-1.975064 -1.871115,-1.14346 -2.806673,-3.170501 -4.365935,-4.261984 -1.559261,-1.091483 -2.13099,-1.403336 -3.014574,-2.027041 -0.88358,-0.623705 -3.066547,-0.467779 -3.794205,-1.715191 -0.727654,-1.24741 -0.98753,-3.48235 -0.98753,-4.210008 0,-0.727654 -2.027042,-1.091483 -0.987534,-2.49482 1.039507,-1.403335 1.351359,-2.650745 2.182966,-2.806671 z"
           id="path5438" />
        <path
           style="fill:#ffffff;stroke:none;stroke-width:0.294017px;stroke-linecap:butt;stroke-linejoin:miter;stroke-opacity:1"
           d="m 65.513584,34.333131 c 0.467778,0.831605 0.935557,0.883581 0.727657,3.690253 -0.207903,2.806671 -0.207903,3.794205 -0.259879,5.093591 -0.05197,1.299383 -0.2079,2.286917 0.675681,3.326427 0.883581,1.039507 -0.155926,1.403335 2.182967,1.871115 2.338893,0.467778 3.326427,-0.25988 4.677786,0.935557 1.351363,1.195434 2.390871,-0.05197 3.53433,2.910622 1.14346,2.962598 -1.039507,3.430376 1.299386,3.326426 2.338893,-0.103946 2.234941,-0.311852 4.158032,-0.831608 1.92309,-0.519751 6.029148,-0.831603 6.912729,-1.455308 0.883584,-0.623705 2.598772,-2.598773 2.494819,-3.690256 -0.103946,-1.091484 -0.363825,-1.767165 -1.299383,-5.041616 -0.935557,-3.27445 -1.03951,-3.482352 -1.403335,-5.873221 -0.363829,-2.390867 -1.819142,-4.106055 -2.806675,-4.106055 -0.987531,0 -3.014572,-0.46778 -4.417907,-0.415806 -1.403339,0.05197 -2.546796,0.103958 -4.158035,0.311853 -1.611239,0.207902 -5.717296,0.363829 -6.756803,0.259878 -1.039508,-0.103957 -4.417911,-0.415805 -4.625813,-0.415805 -0.2079,0 -0.519752,-0.571728 -0.935557,0.103957 z"
           id="path5440" />
        <path
           style="fill:#ffffff;stroke:none;stroke-width:0.294017px;stroke-linecap:butt;stroke-linejoin:miter;stroke-opacity:1"
           d="m 91.676043,34.541031 c 3.586303,0 4.002105,-0.311853 7.224582,-0.311853 3.222485,0 7.224585,0.05197 10.135205,-0.05197 2.91062,-0.103957 6.7568,0 8.0562,0 1.29938,0 4.31396,-2.027044 4.72976,0.363826 0.4158,2.390869 -0.46778,4.781739 -0.57173,6.133099 -0.10391,1.351362 -0.41581,2.234943 -0.41581,5.301494 0,3.066547 0.052,2.079013 0.51976,5.093588 0.46778,3.014575 -1.87111,6.392978 -2.70273,5.925196 -0.8316,-0.467779 -2.59876,-1.975065 -3.43037,-2.546792 -0.8316,-0.571732 -2.49482,-2.234944 -3.27446,-4.210011 -0.77962,-1.975065 -1.81913,-4.313958 -2.33888,-5.249515 -0.51975,-0.935557 -1.09149,-3.222477 -2.65076,-3.326427 -1.55925,-0.103946 -6.86075,-1.091484 -7.328527,-1.24741 -0.467782,-0.155926 -0.675685,-0.831607 -2.390873,-1.559262 -1.715188,-0.727658 -4.989638,-0.935557 -5.457416,-1.715188 -0.46778,-0.779631 -0.571729,-2.079017 -0.103946,-2.598772 z"
           id="path5442" />
        <path
           style="fill:#ffffff;stroke:none;stroke-width:0.294017px;stroke-linecap:butt;stroke-linejoin:miter;stroke-opacity:1"
           d="m 91.50129,39.261381 c 1.663212,0.727655 1.403336,0.883582 3.378403,1.819139 1.975065,0.935557 4.98964,1.455312 5.925197,1.819141 0.93556,0.363825 4.72976,2.130991 5.61335,3.27445 0.88358,1.143459 1.29938,-0.207902 1.66321,3.170501 0.36382,3.3784 -0.72766,3.1705 2.39087,6.081122 3.11852,2.910624 3.7942,2.546796 4.15803,3.846182 0.36383,1.299383 1.45531,2.23494 0.62371,3.638279 -0.83161,1.403336 -1.87112,4.002105 -3.27446,4.313957 -1.40333,0.311853 -9.56347,0.987534 -11.43459,-0.363829 -1.871114,-1.351359 -2.286917,-1.975064 -3.846178,-3.534326 -1.559262,-1.559262 -3.898155,-6.081122 -4.210008,-6.548901 -0.311852,-0.467781 -1.663215,-1.663215 -1.14346,-2.390869 0.519755,-0.727658 1.715189,-3.638279 2.546796,-4.469886 0.831608,-0.831608 -0.571731,-5.873223 -0.831607,-6.600879 -0.259876,-0.727654 -2.338893,-3.014574 -1.559263,-4.054081 z"
           id="path5444" />
        <path
           style="fill:#ffffff;stroke:none;stroke-width:0.294017px;stroke-linecap:butt;stroke-linejoin:miter;stroke-opacity:1"
           d="m 77.623855,58.407159 c 3.690255,-1.091483 4.21001,-1.091483 5.821245,-1.24741 1.611239,-0.155926 5.353469,-2.28692 6.289026,-0.727658 0.935556,1.559266 0.935556,1.923091 1.715188,4.106059 0.779631,2.182966 1.351363,4.106057 3.066551,5.769272 1.715188,1.663212 5.249514,3.638276 6.237045,4.365934 0.98754,0.727655 3.27446,0.467779 3.43038,1.871114 0.15593,1.403336 1.45531,3.63828 -1.09148,5.561371 -2.5468,1.923088 -4.158036,2.702718 -6.081126,2.02704 -1.923091,-0.675681 -7.224582,-1.351362 -9.407549,-0.571731 -2.182967,0.779631 -4.365933,2.806675 -6.237052,0.415806 -1.871114,-2.390871 -2.702718,-2.390871 -2.338893,-5.197542 0.363829,-2.806672 1.14346,-8.004214 1.14346,-8.991746 0,-0.987534 -0.259875,-2.702723 -0.831607,-3.950132 -0.571729,-1.24741 -2.390867,-2.182967 -1.715188,-3.430377 z"
           id="path5446" />
        <path
           style="fill:#ffffff;stroke:none;stroke-width:0.294017px;stroke-linecap:butt;stroke-linejoin:miter;stroke-opacity:1"
           d="m 68.13118,80.756586 c 2.027041,1.299383 0.571731,1.351359 3.014574,1.611239 2.442846,0.259876 5.249518,0.363825 6.341001,0.623705 1.091483,0.259876 5.457418,0.935557 6.860754,0.571728 1.403335,-0.363828 3.326426,-1.14346 4.106057,-1.299386 0.779632,-0.155927 3.482353,-0.571728 4.677787,-0.467779 1.195436,0.103946 6.44495,0.363829 6.860755,1.611239 0.415802,1.247409 0.415802,1.871114 0.415802,3.898155 0,2.02704 -0.36383,1.715188 -0.467778,4.52186 -0.103946,2.806671 0.623708,3.534329 0.311848,5.509394 -0.311848,1.975067 0.51976,2.390869 -0.675677,2.910619 -1.195432,0.51976 -2.546793,0.77964 -5.457416,0.77964 -2.910622,0 -2.858649,-0.2079 -5.873223,-0.2079 -3.014572,0 -9.615449,0.2079 -12.837926,0.2079 -3.222474,0 -3.794206,1.09148 -4.210007,-0.62371 -0.415803,-1.715186 -0.155927,-3.690254 -0.363829,-4.885687 -0.2079,-1.195436 -0.623705,-0.207903 -1.767165,-2.962598 -1.143457,-2.754698 -1.507286,-3.118525 -1.611236,-4.365937 -0.103957,-1.24741 0.2079,-3.794203 0.363827,-4.677786 0.155925,-0.883581 -1.143458,-1.611239 0.311852,-2.754696 z"
           id="path5448" />
        <path
           style="fill:#ffffff;stroke:none;stroke-width:0.294017px;stroke-linecap:butt;stroke-linejoin:miter;stroke-opacity:1"
           d="m 101.4994,100.70573 c 0.2079,-3.534327 1.66322,-7.744335 1.61124,-8.991745 -0.052,-1.24741 -0.46778,-2.702721 -0.67568,-4.625813 -0.2079,-1.923091 -0.93556,-3.638279 0,-4.729762 0.93556,-1.091484 3.32643,-2.234944 3.95013,-3.222474 0.62371,-0.987534 0.98753,-2.027042 1.03951,-3.27445 0.052,-1.247414 -1.40333,-5.769274 -0.67568,-5.457421 0.72766,0.311852 1.92309,-1.14346 4.26199,-0.779631 2.33888,0.363829 3.43037,-0.259876 4.52185,-0.519756 1.09149,-0.259875 0.88358,-2.910621 1.09149,-3.066547 0.2079,-0.155927 1.19543,-2.130991 1.19543,-2.546796 0,-0.415802 0.15592,-2.13099 0.8316,-2.910621 0.67569,-0.779631 1.61124,-2.546795 2.5468,-0.935558 0.93556,1.611237 0.83161,2.546793 0.20791,5.197542 -0.62371,2.650745 0.25987,4.937662 -0.10391,7.120629 -0.36382,2.182967 -0.46778,4.729762 -0.67567,5.66532 -0.2079,0.935557 0.6237,1.299386 0.15592,4.158034 -0.46778,2.858648 -1.24741,5.249515 -1.14345,6.444951 0.1039,1.195433 0.98753,-0.415805 0.8316,4.52186 -0.15593,4.937665 -0.72765,6.392974 -0.31185,7.640388 0.4158,1.24741 -1.40333,1.61123 -2.80667,1.14346 -1.40334,-0.46778 -3.84618,-0.88358 -6.18508,-1.03951 -2.33888,-0.15593 -7.43248,0.25988 -8.16013,0.51975 -0.72766,0.25988 -0.25988,0.98753 -1.50729,-0.31185 z"
           id="path5450" />
      </g>
    </clipPath>
  </defs>
  <g
     id="layer1">
    <rect
       style="fill:#ffbb00;fill-opacity:1;stroke-width:0.268163"
       id="rect31"
       width="135.46666"
       height="135.46666"
       x="2.220446e-16"
       y="-135.46666"
       transform="scale(1,-1)" />
    <path
       style="fill:#ffffff;fill-opacity:1;stroke:none;stroke-width:0.268065;stroke-miterlimit:4;stroke-dasharray:none"
       id="rect5122"
       width="99.811806"
       height="64.892929"
       x="19.350771"
       y="-100.16238"
       transform="matrix(0.88467855,0,0,-0.88467855,6.4634396,7.8265187)"
       clip-path="url(#clipPath5420)"
       d="m 21.467438,-100.16238 h 95.578472 a 2.1166667,2.1166667 45 0 1 2.11667,2.11667 v 60.659596 a 2.1166667,2.1166667 135 0 1 -2.11667,2.116667 H 21.467438 a 2.1166667,2.1166667 45 0 1 -2.116667,-2.116667 V -98.04571 a 2.1166667,2.1166667 135 0 1 2.116667,-2.11667 z" />
  </g>
</svg>
